# xmcd CD database file
#
# Track frame offsets:
#	150
#	24360
#	39360
#	54044
#	72219
#	88538
#
# Disc length: 1478 seconds
#
# Revision: 0
# Processed by: cddbd v1.5.2PL0 Copyright (c) Steve Scherf et al.
# Submitted via: CDex 1.70beta2
#
DISCID=3a05c406
DTITLE=The New Originals - Acoustic EP
DYEAR=2000
DGENRE=Jazz
TTITLE0=Backwards
TTITLE1=Live with yourself
TTITLE2=Make it real
TTITLE3=Feel it
TTITLE4=Dream grieving
TTITLE5=Water flower
EXTD=YEAR: 2000
EXTT0=
EXTT1=
EXTT2=
EXTT3=
EXTT4=
EXTT5=
PLAYORDER=
